# xmcd
#
# Track frame offsets:
#	150
#	10200
#	24795
#	43667
#	56627
#	75265
#	83380
#	105320
#	115867
#	129800
#	144702
#	159435
#	173345
#	190885
#	205295
#	219010
#
# Disc length: 3126 seconds
#
# Revision: 2
# Processed by: cddbd v1.5.2PL0 Copyright (c) Steve Scherf et al.
# Submitted via: dBpowerAMP V4.0
#
DISCID=b20c3410
DTITLE=Goodmann Herman Dorsey - Kings of swing 4/4
DYEAR=1900
DGENRE=blues
TTITLE0=Benny Goodman - Let´s dance
TTITLE1=Benny Goodman - Stompin´ at the savoy
TTITLE2=Woody Herman - Dont´t get around much anymore
TTITLE3=Benny Goodman - You Brought a new kind of love to me
TTITLE4=Woody Herman - Autobahn blues
TTITLE5=Woody Herman - Beale street blues
TTITLE6=Woody Herman - Ready, get set, jump
TTITLE7=Woody Herman - Early autumm
TTITLE8=Benny Goodman - Sent for you yesterday
TTITLE9=Tommy Dorsey - Dark eyes
TTITLE10=Tommy Dorsey - Humoresque
TTITLE11=Tommy Dorsey - Song of india
TTITLE12=Benny Goodman - King Porter stomp
TTITLE13=Tommy Dorsey - Liebestraum
TTITLE14=Tommy Dorsey - Barcarole
TTITLE15=Benny Goodman - Somebody stola my gal
EXTD=
EXTT0=
EXTT1=
EXTT2=
EXTT3=
EXTT4=
EXTT5=
EXTT6=
EXTT7=
EXTT8=
EXTT9=
EXTT10=
EXTT11=
EXTT12=
EXTT13=
EXTT14=
EXTT15=
PLAYORDER=
